<?xml version="1.0" encoding="UTF-8"?>
<svg width="70px" height="26px" viewBox="0 0 70 26" version="1.1" xmlns="http://www.w3.org/2000/svg" xmlns:xlink="http://www.w3.org/1999/xlink">
    <title>Full shape Copy</title>
    <g id="Page-1" stroke="none" stroke-width="1" fill="none" fill-rule="evenodd">
        <g id="Desktop" transform="translate(-153.000000, -913.000000)" fill-rule="nonzero" stroke="#F43059" stroke-width="2">
            <path d="M221.879256,914 C221.080183,920.233004 218.882924,925.740133 215.269683,930.208917 C211.550926,934.8082 207.234174,937.149701 202.283784,937.149701 C198.278583,937.149701 192.463922,935.325327 184.835907,931.751436 C180.752314,929.803714 177.800392,928.518101 175.981971,927.889822 C174.086961,927.235081 171.976358,926.903526 169.648649,926.903526 C166.748835,926.903526 164.192796,927.886543 161.98283,929.858677 C159.989428,931.637553 158.712409,934.162642 158.191303,937.149701 L158.191303,937.149701 L154.1195,937.149701 C154.973146,930.369313 157.307598,924.717874 161.162039,920.522894 C165.140251,916.193208 169.664227,914 174.756757,914 C179.299421,914 184.998265,915.938598 191.866821,919.743038 C195.979836,921.894961 198.746609,923.229139 200.185129,923.764264 C201.707609,924.330621 203.415527,924.618762 205.310811,924.618762 C208.885725,924.618762 211.798129,923.452093 214.063542,921.153749 C216.081685,919.106269 217.380828,916.623174 217.961559,914 L217.961559,914 Z" id="Full-shape-Copy"></path>
        </g>
    </g>
</svg>