<svg id="Capa_1" data-name="Capa 1" xmlns="http://www.w3.org/2000/svg" viewBox="0 0 55.34 60.42"><defs><style>.cls-1{fill:#fff;}</style></defs><path class="cls-1" d="M33.17,41.92c-.53-1.2-1-2.27-1.38-3.16-.5-1.17-.86-2-1-2.44a1.54,1.54,0,0,0-.12-.28,9.91,9.91,0,0,0-9.4-6.28A10.18,10.18,0,1,0,29.1,46.4a.23.23,0,0,0,0-.25l-1.28-3c-.19-.43-.25-.34-.43,0a7,7,0,1,1,.2-6.08l.2.43,1.08,2.31.05.1,1.53,3.28.68,1.13Z" transform="translate(-11.05 -9.76)"/><path class="cls-1" d="M30.22,42.65c2,4.6,4.12,7.47,9.73,7.47a10.13,10.13,0,0,0,7.87-3.72.23.23,0,0,0,0-.25l-1.28-3a.25.25,0,0,0-.42,0A7,7,0,0,1,40,46.93c-3.85,0-5.37-1.73-6.78-5" transform="translate(-11.05 -9.76)"/><path class="cls-1" d="M48.73,37.28c2-4.6,4.12-7.47,9.74-7.47a10.14,10.14,0,0,1,7.87,3.73.23.23,0,0,1,0,.24l-1.28,3a.25.25,0,0,1-.43,0A7,7,0,0,0,58.47,33c-3.85,0-5.38,1.72-6.78,5" transform="translate(-11.05 -9.76)"/><path class="cls-1" d="M16.69,12.21s-.65-1.49.16-1.82l1.45-.61s.67-.25,1.14.81S33.17,41.92,33.17,41.92l-2.71,1.3Z" transform="translate(-11.05 -9.76)"/><path class="cls-1" d="M35.21,67.72s-.65,1.49.16,1.83l1.45.6s.67.26,1.14-.8S51.69,38,51.69,38L49,36.71Z" transform="translate(-11.05 -9.76)"/><path class="cls-1" d="M46.35,37.08A6.75,6.75,0,0,0,40.05,33a7,7,0,0,0-5.33,2.47,6.72,6.72,0,0,0-.8,1.17l-1.63-3.24a10.17,10.17,0,0,1,7.76-3.6,9.78,9.78,0,0,1,7.85,3.67l-1.55,3.65" transform="translate(-11.05 -9.76)"/><path class="cls-1" d="M47.88,33.4" transform="translate(-11.05 -9.76)"/><path class="cls-1" d="M46.35,36.88" transform="translate(-11.05 -9.76)"/><circle class="cls-1" cx="42.22" cy="37.87" r="2.5"/></svg>